{"glyphs":{"0":{"x_min":58,"x_max":669,"ha":727,"o":"m 669 530 l 669 189 q 669 143 656 106 q 642 68 609 41 q 575 14 516 0 q 456 -15 364 -15 l 364 -15 q 272 -15 212 0 q 152 14 119 41 q 85 68 72 106 q 58 143 58 189 l 58 189 l 58 530 q 58 576 72 614 q 85 651 119 678 q 152 705 212 720 q 272 735 364 735 l 364 735 q 456 735 516 720 q 575 705 609 678 q 642 651 656 614 q 669 576 669 530 l 669 530 z m 284 494 l 284 225 q 284 205 299 192 q 313 178 364 178 l 364 178 q 416 178 430 192 q 444 205 444 225 l 444 225 l 444 494 q 444 514 430 527 q 416 540 364 540 l 364 540 q 313 540 299 527 q 284 514 284 494 l 284 494 z"},"1":{"x_min":48,"x_max":562,"ha":601,"o":"m 526 0 l 526 0 l 84 0 q 48 0 48 36 l 48 36 l 48 157 q 48 193 84 193 l 84 193 l 196 193 l 196 527 l 104 527 q 68 527 68 563 l 68 563 l 68 684 q 68 720 104 720 l 104 720 l 394 720 q 430 720 430 684 l 430 684 l 430 193 l 526 193 q 562 193 562 157 l 562 157 l 562 36 q 562 0 526 0 z"},"2":{"x_min":40,"x_max":588,"ha":639,"o":"m 552 0 l 552 0 l 76 0 q 40 0 40 36 l 40 36 l 40 208 q 40 286 60 328 q 80 370 116 392 q 151 413 197 427 l 197 427 l 331 469 q 347 474 353 482 q 358 489 358 505 l 358 505 q 358 520 352 526 q 346 531 331 531 l 331 531 l 114 531 q 78 531 78 567 l 78 567 l 78 684 q 78 720 114 720 l 114 720 l 409 720 q 495 720 540 678 q 585 635 585 554 l 585 554 l 585 460 q 585 384 544 345 q 502 306 429 283 l 429 283 l 293 240 q 278 236 273 232 q 267 227 267 210 l 267 210 l 267 189 l 552 189 q 588 189 588 153 l 588 153 l 588 36 q 588 0 552 0 z"},"3":{"x_min":49,"x_max":595,"ha":637,"o":"m 85 189 l 85 189 l 336 189 q 360 189 367 198 q 374 207 374 219 l 374 219 l 374 246 q 374 258 367 267 q 360 275 336 275 l 336 275 l 166 275 q 130 275 130 311 l 130 311 l 130 418 q 130 454 166 454 l 166 454 l 271 454 q 295 454 302 463 q 309 472 309 484 l 309 484 l 309 499 q 309 511 302 520 q 295 529 271 529 l 271 529 l 85 529 q 49 529 49 565 l 49 565 l 49 684 q 49 720 85 720 l 85 720 l 364 720 q 447 720 488 682 q 528 643 528 577 l 528 577 l 528 519 q 528 481 515 453 q 502 425 469 411 l 469 411 q 540 403 568 368 q 595 332 595 266 l 595 266 l 595 166 q 595 89 546 45 q 497 0 401 0 l 401 0 l 85 0 q 49 0 49 36 l 49 36 l 49 153 q 49 189 85 189 z"},"4":{"x_min":63,"x_max":640,"ha":709,"o":"m 414 36 l 414 167 l 245 167 q 148 167 106 208 q 63 248 63 333 l 63 333 l 63 684 q 63 720 99 720 l 99 720 l 254 720 q 290 720 290 684 l 290 684 l 290 410 q 290 376 321 376 l 321 376 l 414 376 l 414 684 q 414 720 450 720 l 450 720 l 604 720 q 640 720 640 684 l 640 684 l 640 36 q 640 0 604 0 l 604 0 l 450 0 q 414 0 414 36 l 414 36 z"},"5":{"x_min":55,"x_max":604,"ha":647,"o":"m 409 0 l 409 0 l 91 0 q 55 0 55 36 l 55 36 l 55 153 q 55 189 91 189 l 91 189 l 349 189 q 376 189 376 212 l 376 212 l 376 251 q 376 274 349 274 l 349 274 l 101 274 q 65 274 65 310 l 65 310 l 65 684 q 65 720 101 720 l 101 720 l 532 720 q 568 720 568 684 l 568 684 l 568 565 q 568 529 532 529 l 532 529 l 292 529 l 292 464 l 429 464 q 510 464 557 425 q 604 385 604 305 l 604 305 l 604 166 q 604 90 552 45 q 499 0 409 0 z"},"6":{"x_min":58,"x_max":646,"ha":693,"o":"m 284 470 l 284 448 q 334 463 411 463 l 411 463 q 502 463 553 443 q 604 423 625 383 q 646 343 646 283 l 646 283 l 646 187 q 646 126 622 81 q 598 35 536 10 q 473 -15 358 -15 l 358 -15 q 266 -15 207 0 q 148 14 116 41 q 83 67 71 104 q 58 141 58 187 l 58 187 l 58 515 q 58 576 80 622 q 102 668 156 694 q 210 720 304 720 l 304 720 l 534 720 q 570 720 570 684 l 570 684 l 570 566 q 570 530 534 530 l 534 530 l 347 530 q 310 530 297 519 q 284 507 284 470 l 284 470 z m 284 262 l 284 262 l 284 203 q 284 187 296 177 q 308 166 351 166 l 351 166 q 396 166 408 177 q 420 187 420 203 l 420 203 l 420 262 q 420 277 408 288 q 396 298 351 298 l 351 298 q 308 298 296 288 q 284 277 284 262 z"},"7":{"x_min":38,"x_max":575,"ha":627,"o":"m 74 720 l 539 720 q 575 720 575 684 l 575 684 l 575 431 q 575 368 559 330 q 542 292 508 271 q 473 249 419 233 l 419 233 l 345 211 l 345 36 q 345 0 309 0 l 309 0 l 147 0 q 111 0 111 36 l 111 36 l 111 217 q 111 281 128 319 q 144 356 179 378 q 214 399 267 415 l 267 415 l 348 437 l 348 527 l 74 527 q 38 527 38 563 l 38 563 l 38 684 q 38 720 74 720 l 74 720 z"},"8":{"x_min":47,"x_max":664,"ha":711,"o":"m 664 256 l 664 256 l 664 159 q 664 107 637 68 q 610 29 544 7 q 477 -15 356 -15 l 356 -15 q 236 -15 169 7 q 101 29 74 68 q 47 107 47 159 l 47 159 l 47 256 q 47 327 78 365 q 108 402 153 411 l 153 411 q 120 425 107 453 q 94 481 94 519 l 94 519 l 94 577 q 94 626 118 662 q 142 697 200 716 q 257 735 357 735 l 357 735 q 458 735 515 716 q 571 697 594 662 q 617 626 617 577 l 617 577 l 617 519 q 617 481 604 453 q 591 425 558 411 l 558 411 q 603 402 634 365 q 664 327 664 256 z m 268 250 l 268 197 q 268 181 285 171 q 302 160 356 160 l 356 160 q 411 160 427 171 q 443 181 443 197 l 443 197 l 443 250 q 443 265 427 276 q 411 286 356 286 l 356 286 q 302 286 285 276 q 268 265 268 250 l 268 250 z m 293 524 l 293 480 q 293 464 304 454 q 314 443 356 443 l 356 443 q 399 443 409 454 q 418 464 418 480 l 418 480 l 418 524 q 418 539 409 550 q 399 560 356 560 l 356 560 q 314 560 304 550 q 293 539 293 524 l 293 524 z"},"9":{"x_min":47,"x_max":635,"ha":693,"o":"m 409 250 l 409 272 q 359 257 282 257 l 282 257 q 192 257 141 277 q 89 297 68 338 q 47 378 47 437 l 47 437 l 47 533 q 47 594 71 640 q 95 685 158 710 q 220 735 335 735 l 335 735 q 427 735 486 721 q 545 706 578 680 q 610 653 623 616 q 635 579 635 533 l 635 533 l 635 205 q 635 144 613 98 q 591 52 538 26 q 484 0 389 0 l 389 0 l 159 0 q 123 0 123 36 l 123 36 l 123 154 q 123 190 159 190 l 159 190 l 346 190 q 383 190 396 202 q 409 213 409 250 l 409 250 z m 409 458 l 409 458 l 409 517 q 409 533 398 544 q 386 554 342 554 l 342 554 q 297 554 285 544 q 273 533 273 517 l 273 517 l 273 458 q 273 443 285 433 q 297 422 342 422 l 342 422 q 386 422 398 433 q 409 443 409 458 z"}," ":{"x_min":0,"x_max":0,"ha":225,"o":""},"!":{"x_min":81,"x_max":342,"ha":424,"o":"m 289 262 l 289 262 l 134 262 q 98 262 97 298 l 97 298 l 82 684 q 81 720 116 720 l 116 720 l 307 720 q 342 720 341 684 l 341 684 l 327 298 q 326 262 289 262 z m 304 0 l 304 0 l 120 0 q 84 0 84 36 l 84 36 l 84 167 q 84 203 120 203 l 120 203 l 304 203 q 340 203 340 167 l 340 167 l 340 36 q 340 0 304 0 z"},"\"":{"x_min":45,"x_max":601,"ha":646,"o":"m 240 345 l 240 345 l 96 345 q 70 345 63 353 q 55 360 54 386 l 54 386 l 46 679 q 45 705 53 713 q 60 720 86 720 l 86 720 l 251 720 q 277 720 284 713 q 291 705 290 679 l 290 679 l 282 386 q 281 360 274 353 q 266 345 240 345 z m 550 345 l 550 345 l 406 345 q 380 345 373 353 q 365 360 364 386 l 364 386 l 356 679 q 355 705 363 713 q 370 720 396 720 l 396 720 l 561 720 q 587 720 594 713 q 601 705 600 679 l 600 679 l 592 386 q 591 360 584 353 q 576 345 550 345 z"},"#":{"x_min":35,"x_max":715,"ha":750,"o":"m 95 36 l 95 36 l 109 135 l 71 135 q 35 135 35 171 l 35 171 l 35 278 q 35 314 71 314 l 71 314 l 135 314 l 149 411 l 107 411 q 71 411 71 447 l 71 447 l 71 554 q 71 590 107 590 l 107 590 l 175 590 l 188 684 q 190 703 198 712 q 205 720 224 720 l 224 720 l 329 720 q 369 720 365 684 l 365 684 l 352 590 l 465 590 l 478 684 q 480 703 488 712 q 495 720 514 720 l 514 720 l 619 720 q 659 720 655 684 l 655 684 l 642 590 l 679 590 q 715 590 715 554 l 715 554 l 715 447 q 715 411 679 411 l 679 411 l 616 411 l 602 314 l 643 314 q 679 314 679 278 l 679 278 l 679 171 q 679 135 643 135 l 643 135 l 576 135 l 562 36 q 560 17 553 9 q 545 0 526 0 l 526 0 l 421 0 q 381 0 385 36 l 385 36 l 399 135 l 286 135 l 272 36 q 270 17 263 9 q 255 0 236 0 l 236 0 l 131 0 q 91 0 95 36 z m 326 411 l 312 314 l 425 314 l 439 411 l 326 411 z"},"$":{"x_min":51,"x_max":610,"ha":650,"o":"m 441 2 l 441 2 l 441 -54 q 441 -90 405 -90 l 405 -90 l 260 -90 q 224 -90 224 -54 l 224 -54 l 224 0 l 87 0 q 51 0 51 36 l 51 36 l 51 153 q 51 189 87 189 l 87 189 l 356 189 q 369 189 376 198 q 382 206 382 218 l 382 218 q 382 235 376 243 q 369 251 356 252 l 356 252 l 206 273 q 136 284 94 320 q 51 355 51 439 l 51 439 l 51 544 q 51 622 97 667 q 142 711 224 718 l 224 718 l 224 774 q 224 810 260 810 l 260 810 l 405 810 q 441 810 441 774 l 441 774 l 441 720 l 538 720 q 574 720 574 684 l 574 684 l 574 565 q 574 529 538 529 l 538 529 l 305 529 q 278 529 278 499 l 278 499 q 278 470 305 467 l 305 467 l 454 447 q 501 440 536 423 q 571 405 591 371 q 610 337 610 281 l 610 281 l 610 176 q 610 99 566 55 q 521 10 441 2 z"},"%":{"x_min":42,"x_max":996,"ha":1031,"o":"m 996 303 l 996 113 q 996 78 982 51 q 967 24 929 9 q 891 -6 819 -6 l 819 -6 q 748 -6 709 9 q 670 24 655 51 q 640 78 640 113 l 640 113 l 640 303 q 640 339 655 366 q 670 392 709 407 q 748 422 819 422 l 819 422 q 891 422 929 407 q 967 392 982 366 q 996 339 996 303 l 996 303 z m 398 606 l 398 416 q 398 381 384 354 q 369 327 331 312 q 293 297 221 297 l 221 297 q 150 297 111 312 q 72 327 57 354 q 42 381 42 416 l 42 416 l 42 606 q 42 642 57 669 q 72 695 111 710 q 150 725 221 725 l 221 725 q 293 725 331 710 q 369 695 384 669 q 398 642 398 606 l 398 606 z m 352 36 l 352 36 l 512 684 q 517 702 526 711 q 534 720 553 720 l 553 720 l 658 720 q 698 720 689 684 l 689 684 l 529 36 q 525 18 516 9 q 507 0 488 0 l 488 0 l 383 0 q 343 0 352 36 z m 187 575 l 187 447 q 187 440 193 435 q 199 429 221 429 l 221 429 q 242 429 248 435 q 254 440 254 447 l 254 447 l 254 575 q 254 581 248 587 q 242 592 221 592 l 221 592 q 199 592 193 587 q 187 581 187 575 l 187 575 z m 785 272 l 785 144 q 785 137 791 132 q 797 126 819 126 l 819 126 q 840 126 846 132 q 852 137 852 144 l 852 144 l 852 272 q 852 278 846 284 q 840 289 819 289 l 819 289 q 797 289 791 284 q 785 278 785 272 l 785 272 z"},"&":{"x_min":37,"x_max":742,"ha":766,"o":"m 296 187 l 296 187 l 438 187 q 460 187 468 197 q 476 207 476 227 l 476 227 l 476 365 q 476 401 512 401 l 512 401 l 706 401 q 742 401 742 365 l 742 365 l 742 257 q 742 221 706 221 l 706 221 l 683 221 l 683 176 q 683 96 637 48 q 591 0 504 0 l 504 0 l 226 0 q 134 0 86 48 q 37 96 37 176 l 37 176 l 37 256 q 37 327 73 367 q 109 406 163 411 l 163 411 q 130 425 117 453 q 104 481 104 519 l 104 519 l 104 567 q 104 633 149 677 q 194 720 296 720 l 296 720 l 507 720 q 543 720 543 684 l 543 684 l 543 569 q 543 533 507 533 l 507 533 l 361 533 q 337 533 330 524 q 323 515 323 503 l 323 503 l 323 482 q 323 470 330 461 q 337 452 361 452 l 361 452 l 376 452 q 412 452 412 416 l 412 416 l 412 313 q 412 277 376 277 l 376 277 l 296 277 q 272 277 265 269 q 258 260 258 248 l 258 248 l 258 217 q 258 205 265 196 q 272 187 296 187 z"},"'":{"x_min":55,"x_max":301,"ha":356,"o":"m 250 345 l 250 345 l 106 345 q 80 345 73 353 q 65 360 64 386 l 64 386 l 56 679 q 55 705 63 713 q 70 720 96 720 l 96 720 l 261 720 q 287 720 294 713 q 301 705 300 679 l 300 679 l 292 386 q 291 360 284 353 q 276 345 250 345 z"},"(":{"x_min":48,"x_max":384,"ha":429,"o":"m 348 -80 l 348 -80 l 294 -80 q 200 -80 146 -54 q 92 -28 70 18 q 48 64 48 124 l 48 124 l 48 595 q 48 656 70 702 q 92 748 146 774 q 200 800 294 800 l 294 800 l 348 800 q 384 800 384 764 l 384 764 l 384 643 q 384 607 348 607 l 348 607 l 317 607 q 293 607 285 595 q 276 583 276 557 l 276 557 l 276 161 q 276 135 285 123 q 293 111 317 111 l 317 111 l 348 111 q 384 111 384 75 l 384 75 l 384 -44 q 384 -80 348 -80 z"},")":{"x_min":45,"x_max":381,"ha":429,"o":"m 135 -80 l 135 -80 l 81 -80 q 45 -80 45 -44 l 45 -44 l 45 75 q 45 111 81 111 l 81 111 l 112 111 q 136 111 145 123 q 153 135 153 161 l 153 161 l 153 557 q 153 583 145 595 q 136 607 112 607 l 112 607 l 81 607 q 45 607 45 643 l 45 643 l 45 764 q 45 800 81 800 l 81 800 l 135 800 q 230 800 284 774 q 337 748 359 702 q 381 656 381 595 l 381 595 l 381 124 q 381 64 359 18 q 337 -28 284 -54 q 230 -80 135 -80 z"},"*":{"x_min":54,"x_max":664,"ha":718,"o":"m 359 306 l 286 165 q 274 144 265 142 q 255 139 233 153 l 233 153 l 139 221 q 118 236 117 246 q 116 256 133 275 l 133 275 l 242 390 l 90 415 q 65 420 60 428 q 54 436 62 461 l 62 461 l 98 572 q 106 597 116 601 q 125 605 147 594 l 147 594 l 289 530 l 266 679 q 262 705 270 713 q 277 720 302 720 l 302 720 l 419 720 q 445 720 452 713 q 458 705 453 679 l 453 679 l 433 530 l 570 594 q 593 605 602 601 q 611 597 619 572 l 619 572 l 656 461 q 664 436 659 428 q 654 420 628 415 l 628 415 l 475 390 l 585 275 q 602 256 601 246 q 600 236 579 221 l 579 221 l 485 153 q 463 139 454 142 q 445 144 433 165 l 433 165 l 359 306 z"},"+":{"x_min":70,"x_max":664,"ha":734,"o":"m 269 267 l 106 267 q 70 267 70 303 l 70 303 l 70 417 q 70 453 106 453 l 106 453 l 269 453 l 269 621 q 269 657 305 657 l 305 657 l 429 657 q 465 657 465 621 l 465 621 l 465 453 l 628 453 q 664 453 664 417 l 664 417 l 664 303 q 664 267 628 267 l 628 267 l 465 267 l 465 99 q 465 63 429 63 l 429 63 l 305 63 q 269 63 269 99 l 269 99 l 269 267 z"},",":{"x_min":55,"x_max":329,"ha":384,"o":"m 181 -100 l 181 -100 l 104 -100 q 68 -100 68 -64 l 68 -64 l 68 -24 q 68 12 104 12 l 104 12 l 173 12 q 200 12 200 40 l 200 40 l 200 55 l 91 55 q 55 55 55 91 l 55 91 l 55 239 q 55 275 91 275 l 91 275 l 293 275 q 329 275 329 239 l 329 239 l 329 51 q 329 -25 289 -62 q 249 -100 181 -100 z"},"-":{"x_min":40,"x_max":380,"ha":420,"o":"m 344 257 l 76 257 q 40 257 40 293 l 40 293 l 40 427 q 40 463 76 463 l 76 463 l 344 463 q 380 463 380 427 l 380 427 l 380 293 q 380 257 344 257 l 344 257 z"},".":{"x_min":55,"x_max":329,"ha":384,"o":"m 293 0 l 293 0 l 91 0 q 55 0 55 36 l 55 36 l 55 239 q 55 275 91 275 l 91 275 l 293 275 q 329 275 329 239 l 329 239 l 329 36 q 329 0 293 0 z"},"/":{"x_min":1,"x_max":346,"ha":347,"o":"m 5 -54 l 5 -54 l 125 774 q 127 793 135 802 q 142 810 161 810 l 161 810 l 306 810 q 346 810 342 774 l 342 774 l 222 -54 q 220 -73 213 -81 q 205 -90 186 -90 l 186 -90 l 41 -90 q 1 -90 5 -54 z"},":":{"x_min":55,"x_max":329,"ha":384,"o":"m 293 0 l 293 0 l 91 0 q 55 0 55 36 l 55 36 l 55 239 q 55 275 91 275 l 91 275 l 293 275 q 329 275 329 239 l 329 239 l 329 36 q 329 0 293 0 z m 293 355 l 293 355 l 91 355 q 55 355 55 391 l 55 391 l 55 594 q 55 630 91 630 l 91 630 l 293 630 q 329 630 329 594 l 329 594 l 329 391 q 329 355 293 355 z"},";":{"x_min":55,"x_max":329,"ha":384,"o":"m 181 -100 l 181 -100 l 104 -100 q 68 -100 68 -64 l 68 -64 l 68 -24 q 68 12 104 12 l 104 12 l 173 12 q 200 12 200 40 l 200 40 l 200 55 l 91 55 q 55 55 55 91 l 55 91 l 55 239 q 55 275 91 275 l 91 275 l 293 275 q 329 275 329 239 l 329 239 l 329 51 q 329 -25 289 -62 q 249 -100 181 -100 z m 293 355 l 293 355 l 91 355 q 55 355 55 391 l 55 391 l 55 594 q 55 630 91 630 l 91 630 l 293 630 q 329 630 329 594 l 329 594 l 329 391 q 329 355 293 355 z"},"<":{"x_min":80,"x_max":624,"ha":714,"o":"m 588 59 l 588 59 l 207 168 q 166 180 138 197 q 109 214 95 244 q 80 274 80 323 l 80 323 l 80 395 q 80 445 95 475 q 109 504 138 521 q 166 538 207 550 l 207 550 l 588 659 q 624 666 624 628 l 624 628 l 624 496 q 624 477 616 468 q 607 458 588 455 l 588 455 l 301 378 q 291 376 288 372 q 284 368 284 359 l 284 359 q 284 350 288 346 q 291 342 301 340 l 301 340 l 588 263 q 607 260 616 251 q 624 242 624 222 l 624 222 l 624 90 q 624 52 588 59 z"},"=":{"x_min":70,"x_max":664,"ha":734,"o":"m 628 117 l 106 117 q 70 117 70 153 l 70 153 l 70 267 q 70 303 106 303 l 106 303 l 628 303 q 664 303 664 267 l 664 267 l 664 153 q 664 117 628 117 l 628 117 z m 628 417 l 106 417 q 70 417 70 453 l 70 453 l 70 567 q 70 603 106 603 l 106 603 l 628 603 q 664 603 664 567 l 664 567 l 664 453 q 664 417 628 417 l 628 417 z"},">":{"x_min":90,"x_max":634,"ha":714,"o":"m 507 168 l 507 168 l 126 59 q 90 52 90 90 l 90 90 l 90 222 q 90 242 99 251 q 107 260 126 263 l 126 263 l 413 340 q 424 342 427 346 q 430 350 430 359 l 430 359 q 430 368 427 372 q 424 376 413 378 l 413 378 l 126 455 q 107 458 99 468 q 90 477 90 496 l 90 496 l 90 628 q 90 666 126 659 l 126 659 l 507 550 q 549 538 577 521 q 605 504 620 475 q 634 445 634 395 l 634 395 l 634 323 q 634 274 620 244 q 605 214 577 197 q 549 180 507 168 z"},"?":{"x_min":45,"x_max":611,"ha":656,"o":"m 456 273 l 456 273 l 185 236 q 166 234 158 241 q 149 248 146 267 l 146 267 l 125 399 q 119 435 158 440 l 158 440 l 357 468 q 384 472 384 499 l 384 499 q 384 527 357 527 l 357 527 l 81 527 q 45 527 45 563 l 45 563 l 45 684 q 45 720 81 720 l 81 720 l 404 720 q 502 720 557 675 q 611 630 611 544 l 611 544 l 611 439 q 611 355 569 319 q 527 283 456 273 z m 344 0 l 344 0 l 161 0 q 125 0 125 36 l 125 36 l 125 167 q 125 187 134 195 q 142 203 161 203 l 161 203 l 344 203 q 380 203 380 167 l 380 167 l 380 36 q 380 0 344 0 z"},"@":{"x_min":60,"x_max":807,"ha":867,"o":"m 583 100 l 583 100 l 394 100 q 326 100 288 119 q 249 137 234 170 q 218 203 218 246 l 218 246 l 218 439 q 218 483 234 516 q 249 549 288 568 q 326 586 394 586 l 394 586 l 619 586 q 645 586 645 560 l 645 560 l 645 211 q 684 211 696 237 q 707 262 707 302 l 707 302 l 707 568 q 707 612 685 645 q 662 678 603 697 q 544 715 434 715 l 434 715 q 324 715 265 697 q 205 678 183 645 q 160 612 160 568 l 160 568 l 160 150 q 160 107 183 75 q 205 42 265 24 q 324 5 434 5 l 434 5 l 624 5 q 643 5 651 -2 q 658 -10 658 -29 l 658 -29 l 658 -57 q 658 -76 651 -83 q 643 -91 624 -91 l 624 -91 l 434 -91 q 322 -91 249 -73 q 176 -56 135 -23 q 93 9 77 54 q 60 99 60 154 l 60 154 l 60 564 q 60 619 77 665 q 93 710 135 743 q 176 775 249 793 q 322 811 434 811 l 434 811 q 547 811 620 793 q 692 775 733 743 q 774 710 791 665 q 807 619 807 564 l 807 564 l 807 304 q 807 243 790 197 q 773 151 725 126 q 677 100 583 100 z m 415 237 l 482 237 l 482 458 l 425 458 q 397 458 389 447 q 381 436 381 422 l 381 422 l 381 271 q 381 256 388 247 q 395 237 415 237 l 415 237 z"},"A":{"x_min":54,"x_max":676,"ha":730,"o":"m 273 176 l 273 36 q 273 0 237 0 l 237 0 l 90 0 q 54 0 54 36 l 54 36 l 54 300 q 54 330 64 369 q 73 408 93 460 l 93 460 l 180 687 q 191 720 231 720 l 231 720 l 500 720 q 539 720 550 687 l 550 687 l 637 460 q 657 408 667 369 q 676 330 676 300 l 676 300 l 676 36 q 676 0 640 0 l 640 0 l 489 0 q 450 0 450 36 l 450 36 l 450 176 l 273 176 z m 330 510 l 330 510 l 283 358 l 440 358 l 393 510 q 386 527 374 527 l 374 527 l 349 527 q 337 527 330 510 z"},"B":{"x_min":69,"x_max":683,"ha":725,"o":"m 489 0 l 489 0 l 105 0 q 69 0 69 36 l 69 36 l 69 684 q 69 720 105 720 l 105 720 l 424 720 q 522 720 569 683 q 616 646 616 567 l 616 567 l 616 519 q 616 436 557 411 l 557 411 q 622 405 653 368 q 683 330 683 256 l 683 256 l 683 164 q 683 80 636 40 q 589 0 489 0 z m 424 288 l 294 288 l 294 170 l 424 170 q 462 170 462 210 l 462 210 l 462 249 q 462 288 424 288 l 424 288 z m 379 550 l 294 550 l 294 442 l 379 442 q 417 442 417 482 l 417 482 l 417 510 q 417 550 379 550 l 379 550 z"},"C":{"x_min":58,"x_max":584,"ha":628,"o":"m 548 0 l 548 0 l 304 0 q 178 0 118 50 q 58 100 58 204 l 58 204 l 58 515 q 58 620 118 670 q 178 720 304 720 l 304 720 l 548 720 q 584 720 584 684 l 584 684 l 584 563 q 584 527 548 527 l 548 527 l 347 527 q 286 527 286 477 l 286 477 l 286 239 q 286 191 347 191 l 347 191 l 548 191 q 584 191 584 155 l 584 155 l 584 36 q 584 0 548 0 z"},"D":{"x_min":69,"x_max":688,"ha":746,"o":"m 442 0 l 442 0 l 105 0 q 69 0 69 36 l 69 36 l 69 684 q 69 720 105 720 l 105 720 l 442 720 q 568 720 628 670 q 688 620 688 516 l 688 516 l 688 204 q 688 100 628 50 q 568 0 442 0 z m 415 529 l 296 529 l 296 189 l 415 189 q 462 189 462 238 l 462 238 l 462 481 q 462 529 415 529 l 415 529 z"},"E":{"x_min":69,"x_max":605,"ha":654,"o":"m 569 0 l 569 0 l 105 0 q 69 0 69 36 l 69 36 l 69 684 q 69 720 105 720 l 105 720 l 569 720 q 605 720 605 684 l 605 684 l 605 567 q 605 531 569 531 l 569 531 l 293 531 l 293 454 l 488 454 q 524 454 524 418 l 524 418 l 524 311 q 524 275 488 275 l 488 275 l 293 275 l 293 189 l 569 189 q 605 189 605 153 l 605 153 l 605 36 q 605 0 569 0 z"},"F":{"x_min":69,"x_max":587,"ha":618,"o":"m 260 0 l 260 0 l 105 0 q 69 0 69 36 l 69 36 l 69 684 q 69 720 105 720 l 105 720 l 551 720 q 587 720 587 684 l 587 684 l 587 565 q 587 529 551 529 l 551 529 l 296 529 l 296 425 l 470 425 q 506 425 506 389 l 506 389 l 506 269 q 506 233 470 233 l 470 233 l 296 233 l 296 36 q 296 0 260 0 z"},"G":{"x_min":58,"x_max":655,"ha":708,"o":"m 619 0 l 619 0 l 304 0 q 178 0 118 50 q 58 100 58 204 l 58 204 l 58 516 q 58 620 118 670 q 178 720 304 720 l 304 720 l 554 720 q 590 720 590 684 l 590 684 l 590 563 q 590 527 554 527 l 554 527 l 346 527 q 285 527 285 477 l 285 477 l 285 238 q 285 189 331 189 l 331 189 l 428 189 l 428 345 q 428 381 464 381 l 464 381 l 619 381 q 655 381 655 345 l 655 345 l 655 36 q 655 0 619 0 z"},"H":{"x_min":69,"x_max":690,"ha":759,"o":"m 260 0 l 260 0 l 105 0 q 69 0 69 36 l 69 36 l 69 684 q 69 720 105 720 l 105 720 l 260 720 q 296 720 296 684 l 296 684 l 296 467 l 463 467 l 463 684 q 463 720 499 720 l 499 720 l 654 720 q 690 720 690 684 l 690 684 l 690 36 q 690 0 654 0 l 654 0 l 499 0 q 463 0 463 36 l 463 36 l 463 258 l 296 258 l 296 36 q 296 0 260 0 z"},"I":{"x_min":53,"x_max":551,"ha":605,"o":"m 515 0 l 89 0 q 53 0 53 36 l 53 36 l 53 155 q 53 191 89 191 l 89 191 l 188 191 l 188 527 l 89 527 q 53 527 53 563 l 53 563 l 53 684 q 53 720 89 720 l 89 720 l 515 720 q 551 720 551 684 l 551 684 l 551 563 q 551 527 515 527 l 515 527 l 418 527 l 418 191 l 515 191 q 551 191 551 155 l 551 155 l 551 36 q 551 0 515 0 l 515 0 z"},"J":{"x_min":41,"x_max":624,"ha":688,"o":"m 624 684 l 624 189 q 624 128 600 82 q 575 36 512 11 q 449 -15 331 -15 l 331 -15 q 215 -15 152 11 q 89 36 65 82 q 41 128 41 189 l 41 189 l 41 351 q 41 387 77 387 l 77 387 l 222 387 q 258 387 258 351 l 258 351 l 258 229 q 258 209 271 196 q 283 182 329 182 l 329 182 q 373 182 384 196 q 395 209 395 229 l 395 229 l 395 684 q 395 720 431 720 l 431 720 l 588 720 q 624 720 624 684 l 624 684 z"},"K":{"x_min":69,"x_max":686,"ha":746,"o":"m 260 0 l 260 0 l 105 0 q 69 0 69 36 l 69 36 l 69 684 q 69 720 105 720 l 105 720 l 260 720 q 296 720 296 684 l 296 684 l 296 454 l 336 454 l 439 687 q 453 720 489 720 l 489 720 l 643 720 q 679 720 665 687 l 665 687 l 563 454 q 619 451 653 415 q 686 378 686 318 l 686 318 l 686 36 q 686 0 650 0 l 650 0 l 496 0 q 460 0 460 36 l 460 36 l 460 231 q 460 265 428 265 l 428 265 l 296 265 l 296 36 q 296 0 260 0 z"},"L":{"x_min":69,"x_max":650,"ha":695,"o":"m 614 0 l 614 0 l 105 0 q 69 0 69 36 l 69 36 l 69 684 q 69 720 105 720 l 105 720 l 260 720 q 296 720 296 684 l 296 684 l 296 189 l 433 189 l 433 351 q 433 387 469 387 l 469 387 l 614 387 q 650 387 650 351 l 650 351 l 650 36 q 650 0 614 0 z"},"M":{"x_min":69,"x_max":780,"ha":849,"o":"m 254 0 l 254 0 l 105 0 q 69 0 69 36 l 69 36 l 69 684 q 69 720 105 720 l 105 720 l 266 720 q 296 720 312 690 l 312 690 l 402 527 q 407 518 411 514 q 414 510 420 510 l 420 510 l 429 510 q 435 510 439 514 q 442 518 447 527 l 447 527 l 536 690 q 552 720 582 720 l 582 720 l 744 720 q 780 720 780 684 l 780 684 l 780 36 q 780 0 744 0 l 744 0 l 590 0 q 554 0 554 36 l 554 36 l 554 388 l 495 279 q 478 247 442 247 l 442 247 l 402 247 q 366 247 349 279 l 349 279 l 290 388 l 290 36 q 290 0 254 0 z"},"N":{"x_min":69,"x_max":684,"ha":753,"o":"m 255 0 l 255 0 l 105 0 q 69 0 69 36 l 69 36 l 69 684 q 69 720 105 720 l 105 720 l 209 720 q 245 720 268 693 l 268 693 l 462 471 l 462 684 q 462 720 498 720 l 498 720 l 648 720 q 684 720 684 684 l 684 684 l 684 36 q 684 0 648 0 l 648 0 l 498 0 q 462 0 462 36 l 462 36 l 462 159 l 291 366 l 291 36 q 291 0 255 0 z"},"O":{"x_min":58,"x_max":679,"ha":737,"o":"m 679 530 l 679 189 q 679 143 666 106 q 652 68 618 41 q 584 14 524 0 q 463 -15 369 -15 l 369 -15 q 275 -15 215 0 q 154 14 120 41 q 86 68 72 106 q 58 143 58 189 l 58 189 l 58 530 q 58 576 72 614 q 86 651 120 678 q 154 705 215 720 q 275 735 369 735 l 369 735 q 463 735 524 720 q 584 705 618 678 q 652 651 666 614 q 679 576 679 530 l 679 530 z m 285 494 l 285 225 q 285 205 300 192 q 315 178 369 178 l 369 178 q 424 178 439 192 q 453 205 453 225 l 453 225 l 453 494 q 453 514 439 527 q 424 540 369 540 l 369 540 q 315 540 300 527 q 285 514 285 494 l 285 494 z"},"P":{"x_min":69,"x_max":647,"ha":682,"o":"m 260 0 l 260 0 l 105 0 q 69 0 69 36 l 69 36 l 69 684 q 69 720 105 720 l 105 720 l 411 720 q 502 720 554 696 q 605 671 626 627 q 647 583 647 525 l 647 525 l 647 397 q 647 339 626 295 q 605 251 554 227 q 502 202 411 202 l 411 202 l 296 202 l 296 36 q 296 0 260 0 z m 384 533 l 294 533 l 294 382 l 384 382 q 413 382 422 397 q 431 412 431 431 l 431 431 l 431 484 q 431 504 422 519 q 413 533 384 533 l 384 533 z"},"Q":{"x_min":58,"x_max":679,"ha":737,"o":"m 445 -90 l 445 -90 l 291 -90 q 255 -90 255 -54 l 255 -54 l 255 1 q 178 13 135 40 q 92 67 75 108 q 58 148 58 198 l 58 198 l 58 530 q 58 576 72 614 q 86 651 120 678 q 154 705 215 720 q 275 735 369 735 l 369 735 q 463 735 524 720 q 584 705 618 678 q 652 651 666 614 q 679 576 679 530 l 679 530 l 679 198 q 679 148 662 108 q 645 67 603 40 q 560 12 481 1 l 481 1 l 481 -54 q 481 -90 445 -90 z m 285 493 l 285 220 q 285 200 300 187 q 315 173 369 173 l 369 173 q 424 173 439 187 q 453 200 453 220 l 453 220 l 453 493 q 453 513 439 526 q 424 539 369 539 l 369 539 q 315 539 300 526 q 285 513 285 493 l 285 493 z"},"R":{"x_min":69,"x_max":700,"ha":743,"o":"m 259 0 l 259 0 l 105 0 q 69 0 69 36 l 69 36 l 69 684 q 69 720 105 720 l 105 720 l 438 720 q 513 720 556 699 q 599 678 617 641 q 635 603 635 553 l 635 553 l 635 507 q 635 465 623 436 q 611 407 579 393 l 579 393 q 634 387 667 349 q 700 311 700 248 l 700 248 l 700 36 q 700 0 664 0 l 664 0 l 509 0 q 473 0 473 36 l 473 36 l 473 189 q 473 212 465 222 q 456 232 435 232 l 435 232 l 295 232 l 295 36 q 295 0 259 0 z m 370 540 l 295 540 l 295 412 l 370 412 q 396 412 405 426 q 414 439 414 459 l 414 459 l 414 493 q 414 513 405 527 q 396 540 370 540 l 370 540 z"},"S":{"x_min":51,"x_max":610,"ha":650,"o":"m 403 0 l 403 0 l 87 0 q 51 0 51 36 l 51 36 l 51 153 q 51 189 87 189 l 87 189 l 356 189 q 369 189 376 198 q 382 206 382 218 l 382 218 q 382 235 376 243 q 369 251 356 252 l 356 252 l 206 273 q 136 284 94 320 q 51 355 51 439 l 51 439 l 51 544 q 51 630 106 675 q 161 720 258 720 l 258 720 l 538 720 q 574 720 574 684 l 574 684 l 574 565 q 574 529 538 529 l 538 529 l 305 529 q 278 529 278 499 l 278 499 q 278 470 305 467 l 305 467 l 454 447 q 501 440 536 423 q 571 405 591 371 q 610 337 610 281 l 610 281 l 610 176 q 610 91 555 46 q 500 0 403 0 z"},"T":{"x_min":28,"x_max":628,"ha":656,"o":"m 409 0 l 409 0 l 247 0 q 211 0 211 36 l 211 36 l 211 527 l 64 527 q 28 527 28 563 l 28 563 l 28 684 q 28 720 64 720 l 64 720 l 592 720 q 628 720 628 684 l 628 684 l 628 563 q 628 527 592 527 l 592 527 l 445 527 l 445 36 q 445 0 409 0 z"},"U":{"x_min":64,"x_max":682,"ha":746,"o":"m 682 684 l 682 189 q 682 143 669 106 q 655 68 621 41 q 586 14 526 0 q 466 -15 373 -15 l 373 -15 q 280 -15 220 0 q 160 14 126 41 q 91 68 78 106 q 64 143 64 189 l 64 189 l 64 684 q 64 720 100 720 l 100 720 l 257 720 q 293 720 293 684 l 293 684 l 293 228 q 293 208 308 195 q 323 181 375 181 l 375 181 q 428 181 443 195 q 458 208 458 228 l 458 228 l 458 684 q 458 720 494 720 l 494 720 l 646 720 q 682 720 682 684 l 682 684 z"},"V":{"x_min":54,"x_max":676,"ha":730,"o":"m 495 0 l 495 0 l 235 0 q 216 0 204 7 q 192 14 184 33 l 184 33 l 86 278 q 74 308 67 328 q 60 348 57 369 q 54 389 54 420 l 54 420 l 54 684 q 54 720 90 720 l 90 720 l 249 720 q 288 720 288 684 l 288 684 l 288 408 q 288 398 290 388 q 292 378 296 367 l 296 367 l 343 227 q 348 210 362 210 l 362 210 l 373 210 q 387 210 392 227 l 392 227 l 439 368 q 443 379 445 389 q 447 399 447 409 l 447 409 l 447 684 q 447 720 483 720 l 483 720 l 640 720 q 676 720 676 684 l 676 684 l 676 420 q 676 389 673 369 q 670 348 663 328 q 656 308 644 278 l 644 278 l 546 33 q 539 14 527 7 q 515 0 495 0 z"},"W":{"x_min":60,"x_max":771,"ha":831,"o":"m 586 720 l 586 720 l 735 720 q 771 720 771 684 l 771 684 l 771 296 q 771 264 769 237 q 767 209 753 172 l 753 172 l 703 36 q 698 21 689 11 q 679 0 663 0 l 663 0 l 530 0 q 514 0 502 7 q 489 14 484 30 l 484 30 l 438 193 q 433 210 420 210 l 420 210 l 411 210 q 398 210 393 193 l 393 193 l 346 30 q 337 0 304 0 l 304 0 l 172 0 q 156 0 145 10 q 133 20 128 36 l 128 36 l 78 174 q 65 211 63 239 q 60 266 60 298 l 60 298 l 60 684 q 60 720 96 720 l 96 720 l 250 720 q 286 720 286 684 l 286 684 l 286 316 l 344 442 q 352 459 365 466 q 378 473 397 473 l 397 473 l 439 473 q 459 473 472 466 q 484 459 492 442 l 492 442 l 550 316 l 550 684 q 550 720 586 720 z"},"X":{"x_min":60,"x_max":677,"ha":737,"o":"m 284 135 l 284 36 q 284 0 248 0 l 248 0 l 96 0 q 60 0 60 36 l 60 36 l 60 143 q 60 174 64 194 q 67 213 75 230 q 83 246 98 266 l 98 266 l 179 375 l 98 484 q 83 505 75 521 q 66 537 63 557 q 60 576 60 607 l 60 607 l 60 684 q 60 720 96 720 l 96 720 l 250 720 q 286 720 286 684 l 286 684 l 286 615 q 286 605 287 594 q 288 583 295 573 l 295 573 l 339 510 q 344 502 350 498 q 355 493 363 493 l 363 493 l 375 493 q 383 493 388 498 q 393 502 399 510 l 399 510 l 444 573 q 451 583 452 594 q 453 605 453 615 l 453 615 l 453 684 q 453 720 489 720 l 489 720 l 641 720 q 677 720 677 684 l 677 684 l 677 607 q 677 576 674 557 q 671 537 663 521 q 654 505 639 484 l 639 484 l 558 374 l 639 266 q 655 246 663 230 q 671 213 674 194 q 677 174 677 143 l 677 143 l 677 36 q 677 0 641 0 l 641 0 l 489 0 q 453 0 453 36 l 453 36 l 453 135 q 453 136 453 139 l 453 139 q 453 148 452 158 q 451 167 444 177 l 444 177 l 400 240 q 394 249 389 253 q 384 257 376 257 l 376 257 l 362 257 q 354 257 349 253 q 344 249 338 240 l 338 240 l 293 177 q 286 167 285 158 q 284 148 284 139 l 284 139 q 284 136 284 135 l 284 135 z"},"Y":{"x_min":45,"x_max":660,"ha":705,"o":"m 434 0 l 434 0 l 272 0 q 236 0 236 36 l 236 36 l 236 164 l 83 369 q 68 390 60 406 q 51 422 48 442 q 45 461 45 492 l 45 492 l 45 684 q 45 720 81 720 l 81 720 l 235 720 q 271 720 271 684 l 271 684 l 271 520 q 271 510 272 500 q 273 489 280 478 l 280 478 l 326 406 q 336 389 350 389 l 350 389 l 360 389 q 374 389 384 406 l 384 406 l 430 478 q 437 489 438 500 q 439 510 439 520 l 439 520 l 439 684 q 439 720 475 720 l 475 720 l 624 720 q 660 720 660 684 l 660 684 l 660 492 q 660 461 657 442 q 654 422 646 406 q 637 390 622 369 l 622 369 l 470 163 l 470 36 q 470 0 434 0 z"},"Z":{"x_min":46,"x_max":614,"ha":660,"o":"m 578 0 l 578 0 l 82 0 q 46 0 46 36 l 46 36 l 46 170 q 46 206 71 232 l 71 232 l 314 527 l 100 527 q 64 527 64 563 l 64 563 l 64 684 q 64 720 100 720 l 100 720 l 560 720 q 596 720 596 684 l 596 684 l 596 535 q 596 498 571 472 l 571 472 l 339 191 l 578 191 q 614 191 614 155 l 614 155 l 614 36 q 614 0 578 0 z"},"[":{"x_min":48,"x_max":384,"ha":429,"o":"m 348 607 l 276 607 l 276 111 l 348 111 q 384 111 384 75 l 384 75 l 384 -44 q 384 -80 348 -80 l 348 -80 l 84 -80 q 48 -80 48 -44 l 48 -44 l 48 764 q 48 800 84 800 l 84 800 l 348 800 q 384 800 384 764 l 384 764 l 384 643 q 384 607 348 607 l 348 607 z"},"\\":{"x_min":1,"x_max":346,"ha":347,"o":"m 222 774 l 222 774 l 342 -54 q 346 -90 306 -90 l 306 -90 l 161 -90 q 142 -90 135 -81 q 127 -73 125 -54 l 125 -54 l 5 774 q 1 810 41 810 l 41 810 l 186 810 q 205 810 213 802 q 220 793 222 774 z"},"]":{"x_min":45,"x_max":381,"ha":429,"o":"m 81 111 l 153 111 l 153 607 l 81 607 q 45 607 45 643 l 45 643 l 45 764 q 45 800 81 800 l 81 800 l 345 800 q 381 800 381 764 l 381 764 l 381 -44 q 381 -80 345 -80 l 345 -80 l 81 -80 q 45 -80 45 -44 l 45 -44 l 45 75 q 45 111 81 111 l 81 111 z"},"^":{"x_min":33,"x_max":646,"ha":714,"o":"m 40 208 l 40 208 l 148 589 q 160 631 177 660 q 194 688 224 703 q 254 717 303 717 l 303 717 l 376 717 q 426 717 455 703 q 484 688 502 660 q 519 631 531 589 l 531 589 l 639 208 q 646 172 609 172 l 609 172 l 477 171 q 440 170 436 206 l 436 206 l 358 495 q 356 506 353 510 q 349 513 340 512 l 340 512 q 330 513 327 510 q 323 506 321 495 l 321 495 l 243 206 q 239 170 202 171 l 202 171 l 70 172 q 33 172 40 208 z"},"_":{"x_min":70,"x_max":664,"ha":734,"o":"m 628 -103 l 106 -103 q 70 -103 70 -67 l 70 -67 l 70 67 q 70 103 106 103 l 106 103 l 628 103 q 664 103 664 67 l 664 67 l 664 -67 q 664 -103 628 -103 l 628 -103 z"},"`":{"x_min":40,"x_max":459,"ha":500,"o":"m 425 753 l 425 753 l 76 796 q 57 798 49 806 q 40 813 40 832 l 40 832 l 40 928 q 40 965 74 961 l 74 961 l 423 918 q 442 916 451 909 q 459 901 459 882 l 459 882 l 459 786 q 459 749 425 753 z"},"a":{"x_min":54,"x_max":676,"ha":730,"o":"m 273 176 l 273 36 q 273 0 237 0 l 237 0 l 90 0 q 54 0 54 36 l 54 36 l 54 300 q 54 330 64 369 q 73 408 93 460 l 93 460 l 180 687 q 191 720 231 720 l 231 720 l 500 720 q 539 720 550 687 l 550 687 l 637 460 q 657 408 667 369 q 676 330 676 300 l 676 300 l 676 36 q 676 0 640 0 l 640 0 l 489 0 q 450 0 450 36 l 450 36 l 450 176 l 273 176 z m 330 510 l 330 510 l 283 358 l 440 358 l 393 510 q 386 527 374 527 l 374 527 l 349 527 q 337 527 330 510 z"},"b":{"x_min":69,"x_max":683,"ha":725,"o":"m 489 0 l 489 0 l 105 0 q 69 0 69 36 l 69 36 l 69 684 q 69 720 105 720 l 105 720 l 424 720 q 522 720 569 683 q 616 646 616 567 l 616 567 l 616 519 q 616 436 557 411 l 557 411 q 622 405 653 368 q 683 330 683 256 l 683 256 l 683 164 q 683 80 636 40 q 589 0 489 0 z m 424 288 l 294 288 l 294 170 l 424 170 q 462 170 462 210 l 462 210 l 462 249 q 462 288 424 288 l 424 288 z m 379 550 l 294 550 l 294 442 l 379 442 q 417 442 417 482 l 417 482 l 417 510 q 417 550 379 550 l 379 550 z"},"c":{"x_min":58,"x_max":584,"ha":628,"o":"m 548 0 l 548 0 l 304 0 q 178 0 118 50 q 58 100 58 204 l 58 204 l 58 515 q 58 620 118 670 q 178 720 304 720 l 304 720 l 548 720 q 584 720 584 684 l 584 684 l 584 563 q 584 527 548 527 l 548 527 l 347 527 q 286 527 286 477 l 286 477 l 286 239 q 286 191 347 191 l 347 191 l 548 191 q 584 191 584 155 l 584 155 l 584 36 q 584 0 548 0 z"},"d":{"x_min":69,"x_max":688,"ha":746,"o":"m 442 0 l 442 0 l 105 0 q 69 0 69 36 l 69 36 l 69 684 q 69 720 105 720 l 105 720 l 442 720 q 568 720 628 670 q 688 620 688 516 l 688 516 l 688 204 q 688 100 628 50 q 568 0 442 0 z m 415 529 l 296 529 l 296 189 l 415 189 q 462 189 462 238 l 462 238 l 462 481 q 462 529 415 529 l 415 529 z"},"e":{"x_min":69,"x_max":605,"ha":654,"o":"m 569 0 l 569 0 l 105 0 q 69 0 69 36 l 69 36 l 69 684 q 69 720 105 720 l 105 720 l 569 720 q 605 720 605 684 l 605 684 l 605 567 q 605 531 569 531 l 569 531 l 293 531 l 293 454 l 488 454 q 524 454 524 418 l 524 418 l 524 311 q 524 275 488 275 l 488 275 l 293 275 l 293 189 l 569 189 q 605 189 605 153 l 605 153 l 605 36 q 605 0 569 0 z"},"f":{"x_min":69,"x_max":587,"ha":618,"o":"m 260 0 l 260 0 l 105 0 q 69 0 69 36 l 69 36 l 69 684 q 69 720 105 720 l 105 720 l 551 720 q 587 720 587 684 l 587 684 l 587 565 q 587 529 551 529 l 551 529 l 296 529 l 296 425 l 470 425 q 506 425 506 389 l 506 389 l 506 269 q 506 233 470 233 l 470 233 l 296 233 l 296 36 q 296 0 260 0 z"},"g":{"x_min":58,"x_max":655,"ha":708,"o":"m 619 0 l 619 0 l 304 0 q 178 0 118 50 q 58 100 58 204 l 58 204 l 58 516 q 58 620 118 670 q 178 720 304 720 l 304 720 l 554 720 q 590 720 590 684 l 590 684 l 590 563 q 590 527 554 527 l 554 527 l 346 527 q 285 527 285 477 l 285 477 l 285 238 q 285 189 331 189 l 331 189 l 428 189 l 428 345 q 428 381 464 381 l 464 381 l 619 381 q 655 381 655 345 l 655 345 l 655 36 q 655 0 619 0 z"},"h":{"x_min":69,"x_max":690,"ha":759,"o":"m 260 0 l 260 0 l 105 0 q 69 0 69 36 l 69 36 l 69 684 q 69 720 105 720 l 105 720 l 260 720 q 296 720 296 684 l 296 684 l 296 467 l 463 467 l 463 684 q 463 720 499 720 l 499 720 l 654 720 q 690 720 690 684 l 690 684 l 690 36 q 690 0 654 0 l 654 0 l 499 0 q 463 0 463 36 l 463 36 l 463 258 l 296 258 l 296 36 q 296 0 260 0 z"},"i":{"x_min":53,"x_max":551,"ha":605,"o":"m 515 0 l 89 0 q 53 0 53 36 l 53 36 l 53 155 q 53 191 89 191 l 89 191 l 188 191 l 188 527 l 89 527 q 53 527 53 563 l 53 563 l 53 684 q 53 720 89 720 l 89 720 l 515 720 q 551 720 551 684 l 551 684 l 551 563 q 551 527 515 527 l 515 527 l 418 527 l 418 191 l 515 191 q 551 191 551 155 l 551 155 l 551 36 q 551 0 515 0 l 515 0 z"},"j":{"x_min":41,"x_max":624,"ha":688,"o":"m 624 684 l 624 189 q 624 128 600 82 q 575 36 512 11 q 449 -15 331 -15 l 331 -15 q 215 -15 152 11 q 89 36 65 82 q 41 128 41 189 l 41 189 l 41 351 q 41 387 77 387 l 77 387 l 222 387 q 258 387 258 351 l 258 351 l 258 229 q 258 209 271 196 q 283 182 329 182 l 329 182 q 373 182 384 196 q 395 209 395 229 l 395 229 l 395 684 q 395 720 431 720 l 431 720 l 588 720 q 624 720 624 684 l 624 684 z"},"k":{"x_min":69,"x_max":686,"ha":746,"o":"m 260 0 l 260 0 l 105 0 q 69 0 69 36 l 69 36 l 69 684 q 69 720 105 720 l 105 720 l 260 720 q 296 720 296 684 l 296 684 l 296 454 l 336 454 l 439 687 q 453 720 489 720 l 489 720 l 643 720 q 679 720 665 687 l 665 687 l 563 454 q 619 451 653 415 q 686 378 686 318 l 686 318 l 686 36 q 686 0 650 0 l 650 0 l 496 0 q 460 0 460 36 l 460 36 l 460 231 q 460 265 428 265 l 428 265 l 296 265 l 296 36 q 296 0 260 0 z"},"l":{"x_min":69,"x_max":650,"ha":695,"o":"m 614 0 l 614 0 l 105 0 q 69 0 69 36 l 69 36 l 69 684 q 69 720 105 720 l 105 720 l 260 720 q 296 720 296 684 l 296 684 l 296 189 l 433 189 l 433 351 q 433 387 469 387 l 469 387 l 614 387 q 650 387 650 351 l 650 351 l 650 36 q 650 0 614 0 z"},"m":{"x_min":69,"x_max":780,"ha":849,"o":"m 254 0 l 254 0 l 105 0 q 69 0 69 36 l 69 36 l 69 684 q 69 720 105 720 l 105 720 l 266 720 q 296 720 312 690 l 312 690 l 402 527 q 407 518 411 514 q 414 510 420 510 l 420 510 l 429 510 q 435 510 439 514 q 442 518 447 527 l 447 527 l 536 690 q 552 720 582 720 l 582 720 l 744 720 q 780 720 780 684 l 780 684 l 780 36 q 780 0 744 0 l 744 0 l 590 0 q 554 0 554 36 l 554 36 l 554 388 l 495 279 q 478 247 442 247 l 442 247 l 402 247 q 366 247 349 279 l 349 279 l 290 388 l 290 36 q 290 0 254 0 z"},"n":{"x_min":69,"x_max":684,"ha":753,"o":"m 255 0 l 255 0 l 105 0 q 69 0 69 36 l 69 36 l 69 684 q 69 720 105 720 l 105 720 l 209 720 q 245 720 268 693 l 268 693 l 462 471 l 462 684 q 462 720 498 720 l 498 720 l 648 720 q 684 720 684 684 l 684 684 l 684 36 q 684 0 648 0 l 648 0 l 498 0 q 462 0 462 36 l 462 36 l 462 159 l 291 366 l 291 36 q 291 0 255 0 z"},"o":{"x_min":58,"x_max":679,"ha":737,"o":"m 679 530 l 679 189 q 679 143 666 106 q 652 68 618 41 q 584 14 524 0 q 463 -15 369 -15 l 369 -15 q 275 -15 215 0 q 154 14 120 41 q 86 68 72 106 q 58 143 58 189 l 58 189 l 58 530 q 58 576 72 614 q 86 651 120 678 q 154 705 215 720 q 275 735 369 735 l 369 735 q 463 735 524 720 q 584 705 618 678 q 652 651 666 614 q 679 576 679 530 l 679 530 z m 285 494 l 285 225 q 285 205 300 192 q 315 178 369 178 l 369 178 q 424 178 439 192 q 453 205 453 225 l 453 225 l 453 494 q 453 514 439 527 q 424 540 369 540 l 369 540 q 315 540 300 527 q 285 514 285 494 l 285 494 z"},"p":{"x_min":69,"x_max":647,"ha":682,"o":"m 260 0 l 260 0 l 105 0 q 69 0 69 36 l 69 36 l 69 684 q 69 720 105 720 l 105 720 l 411 720 q 502 720 554 696 q 605 671 626 627 q 647 583 647 525 l 647 525 l 647 397 q 647 339 626 295 q 605 251 554 227 q 502 202 411 202 l 411 202 l 296 202 l 296 36 q 296 0 260 0 z m 384 533 l 294 533 l 294 382 l 384 382 q 413 382 422 397 q 431 412 431 431 l 431 431 l 431 484 q 431 504 422 519 q 413 533 384 533 l 384 533 z"},"q":{"x_min":58,"x_max":679,"ha":737,"o":"m 445 -90 l 445 -90 l 291 -90 q 255 -90 255 -54 l 255 -54 l 255 1 q 178 13 135 40 q 92 67 75 108 q 58 148 58 198 l 58 198 l 58 530 q 58 576 72 614 q 86 651 120 678 q 154 705 215 720 q 275 735 369 735 l 369 735 q 463 735 524 720 q 584 705 618 678 q 652 651 666 614 q 679 576 679 530 l 679 530 l 679 198 q 679 148 662 108 q 645 67 603 40 q 560 12 481 1 l 481 1 l 481 -54 q 481 -90 445 -90 z m 285 493 l 285 220 q 285 200 300 187 q 315 173 369 173 l 369 173 q 424 173 439 187 q 453 200 453 220 l 453 220 l 453 493 q 453 513 439 526 q 424 539 369 539 l 369 539 q 315 539 300 526 q 285 513 285 493 l 285 493 z"},"r":{"x_min":69,"x_max":700,"ha":743,"o":"m 259 0 l 259 0 l 105 0 q 69 0 69 36 l 69 36 l 69 684 q 69 720 105 720 l 105 720 l 438 720 q 513 720 556 699 q 599 678 617 641 q 635 603 635 553 l 635 553 l 635 507 q 635 465 623 436 q 611 407 579 393 l 579 393 q 634 387 667 349 q 700 311 700 248 l 700 248 l 700 36 q 700 0 664 0 l 664 0 l 509 0 q 473 0 473 36 l 473 36 l 473 189 q 473 212 465 222 q 456 232 435 232 l 435 232 l 295 232 l 295 36 q 295 0 259 0 z m 370 540 l 295 540 l 295 412 l 370 412 q 396 412 405 426 q 414 439 414 459 l 414 459 l 414 493 q 414 513 405 527 q 396 540 370 540 l 370 540 z"},"s":{"x_min":51,"x_max":610,"ha":650,"o":"m 403 0 l 403 0 l 87 0 q 51 0 51 36 l 51 36 l 51 153 q 51 189 87 189 l 87 189 l 356 189 q 369 189 376 198 q 382 206 382 218 l 382 218 q 382 235 376 243 q 369 251 356 252 l 356 252 l 206 273 q 136 284 94 320 q 51 355 51 439 l 51 439 l 51 544 q 51 630 106 675 q 161 720 258 720 l 258 720 l 538 720 q 574 720 574 684 l 574 684 l 574 565 q 574 529 538 529 l 538 529 l 305 529 q 278 529 278 499 l 278 499 q 278 470 305 467 l 305 467 l 454 447 q 501 440 536 423 q 571 405 591 371 q 610 337 610 281 l 610 281 l 610 176 q 610 91 555 46 q 500 0 403 0 z"},"t":{"x_min":28,"x_max":628,"ha":656,"o":"m 409 0 l 409 0 l 247 0 q 211 0 211 36 l 211 36 l 211 527 l 64 527 q 28 527 28 563 l 28 563 l 28 684 q 28 720 64 720 l 64 720 l 592 720 q 628 720 628 684 l 628 684 l 628 563 q 628 527 592 527 l 592 527 l 445 527 l 445 36 q 445 0 409 0 z"},"u":{"x_min":64,"x_max":682,"ha":746,"o":"m 682 684 l 682 189 q 682 143 669 106 q 655 68 621 41 q 586 14 526 0 q 466 -15 373 -15 l 373 -15 q 280 -15 220 0 q 160 14 126 41 q 91 68 78 106 q 64 143 64 189 l 64 189 l 64 684 q 64 720 100 720 l 100 720 l 257 720 q 293 720 293 684 l 293 684 l 293 228 q 293 208 308 195 q 323 181 375 181 l 375 181 q 428 181 443 195 q 458 208 458 228 l 458 228 l 458 684 q 458 720 494 720 l 494 720 l 646 720 q 682 720 682 684 l 682 684 z"},"v":{"x_min":54,"x_max":676,"ha":730,"o":"m 495 0 l 495 0 l 235 0 q 216 0 204 7 q 192 14 184 33 l 184 33 l 86 278 q 74 308 67 328 q 60 348 57 369 q 54 389 54 420 l 54 420 l 54 684 q 54 720 90 720 l 90 720 l 249 720 q 288 720 288 684 l 288 684 l 288 408 q 288 398 290 388 q 292 378 296 367 l 296 367 l 343 227 q 348 210 362 210 l 362 210 l 373 210 q 387 210 392 227 l 392 227 l 439 368 q 443 379 445 389 q 447 399 447 409 l 447 409 l 447 684 q 447 720 483 720 l 483 720 l 640 720 q 676 720 676 684 l 676 684 l 676 420 q 676 389 673 369 q 670 348 663 328 q 656 308 644 278 l 644 278 l 546 33 q 539 14 527 7 q 515 0 495 0 z"},"w":{"x_min":60,"x_max":771,"ha":831,"o":"m 586 720 l 586 720 l 735 720 q 771 720 771 684 l 771 684 l 771 296 q 771 264 769 237 q 767 209 753 172 l 753 172 l 703 36 q 698 21 689 11 q 679 0 663 0 l 663 0 l 530 0 q 514 0 502 7 q 489 14 484 30 l 484 30 l 438 193 q 433 210 420 210 l 420 210 l 411 210 q 398 210 393 193 l 393 193 l 346 30 q 337 0 304 0 l 304 0 l 172 0 q 156 0 145 10 q 133 20 128 36 l 128 36 l 78 174 q 65 211 63 239 q 60 266 60 298 l 60 298 l 60 684 q 60 720 96 720 l 96 720 l 250 720 q 286 720 286 684 l 286 684 l 286 316 l 344 442 q 352 459 365 466 q 378 473 397 473 l 397 473 l 439 473 q 459 473 472 466 q 484 459 492 442 l 492 442 l 550 316 l 550 684 q 550 720 586 720 z"},"x":{"x_min":60,"x_max":677,"ha":737,"o":"m 284 135 l 284 36 q 284 0 248 0 l 248 0 l 96 0 q 60 0 60 36 l 60 36 l 60 143 q 60 174 64 194 q 67 213 75 230 q 83 246 98 266 l 98 266 l 179 375 l 98 484 q 83 505 75 521 q 66 537 63 557 q 60 576 60 607 l 60 607 l 60 684 q 60 720 96 720 l 96 720 l 250 720 q 286 720 286 684 l 286 684 l 286 615 q 286 605 287 594 q 288 583 295 573 l 295 573 l 339 510 q 344 502 350 498 q 355 493 363 493 l 363 493 l 375 493 q 383 493 388 498 q 393 502 399 510 l 399 510 l 444 573 q 451 583 452 594 q 453 605 453 615 l 453 615 l 453 684 q 453 720 489 720 l 489 720 l 641 720 q 677 720 677 684 l 677 684 l 677 607 q 677 576 674 557 q 671 537 663 521 q 654 505 639 484 l 639 484 l 558 374 l 639 266 q 655 246 663 230 q 671 213 674 194 q 677 174 677 143 l 677 143 l 677 36 q 677 0 641 0 l 641 0 l 489 0 q 453 0 453 36 l 453 36 l 453 135 q 453 136 453 139 l 453 139 q 453 148 452 158 q 451 167 444 177 l 444 177 l 400 240 q 394 249 389 253 q 384 257 376 257 l 376 257 l 362 257 q 354 257 349 253 q 344 249 338 240 l 338 240 l 293 177 q 286 167 285 158 q 284 148 284 139 l 284 139 q 284 136 284 135 l 284 135 z"},"y":{"x_min":45,"x_max":660,"ha":705,"o":"m 434 0 l 434 0 l 272 0 q 236 0 236 36 l 236 36 l 236 164 l 83 369 q 68 390 60 406 q 51 422 48 442 q 45 461 45 492 l 45 492 l 45 684 q 45 720 81 720 l 81 720 l 235 720 q 271 720 271 684 l 271 684 l 271 520 q 271 510 272 500 q 273 489 280 478 l 280 478 l 326 406 q 336 389 350 389 l 350 389 l 360 389 q 374 389 384 406 l 384 406 l 430 478 q 437 489 438 500 q 439 510 439 520 l 439 520 l 439 684 q 439 720 475 720 l 475 720 l 624 720 q 660 720 660 684 l 660 684 l 660 492 q 660 461 657 442 q 654 422 646 406 q 637 390 622 369 l 622 369 l 470 163 l 470 36 q 470 0 434 0 z"},"z":{"x_min":46,"x_max":614,"ha":660,"o":"m 578 0 l 578 0 l 82 0 q 46 0 46 36 l 46 36 l 46 170 q 46 206 71 232 l 71 232 l 314 527 l 100 527 q 64 527 64 563 l 64 563 l 64 684 q 64 720 100 720 l 100 720 l 560 720 q 596 720 596 684 l 596 684 l 596 535 q 596 498 571 472 l 571 472 l 339 191 l 578 191 q 614 191 614 155 l 614 155 l 614 36 q 614 0 578 0 z"},"{":{"x_min":20,"x_max":410,"ha":455,"o":"m 312 276 l 312 161 q 312 135 321 123 q 329 111 353 111 l 353 111 l 374 111 q 410 111 410 75 l 410 75 l 410 -44 q 410 -80 374 -80 l 374 -80 l 330 -80 q 236 -80 182 -54 q 128 -28 106 18 q 84 64 84 124 l 84 124 l 84 254 q 52 264 36 285 q 20 305 20 341 l 20 341 l 20 376 q 20 412 36 432 q 52 452 84 462 l 84 462 l 84 595 q 84 656 106 702 q 128 748 182 774 q 236 800 330 800 l 330 800 l 374 800 q 410 800 410 764 l 410 764 l 410 643 q 410 607 374 607 l 374 607 l 353 607 q 329 607 321 595 q 312 583 312 557 l 312 557 l 312 440 q 312 410 303 397 q 293 383 267 378 l 267 378 l 234 372 q 221 371 221 358 l 221 358 q 221 347 234 344 l 234 344 l 267 338 q 293 334 303 320 q 312 306 312 276 l 312 276 z"},"|":{"x_min":65,"x_max":282,"ha":347,"o":"m 282 774 l 282 774 l 282 -54 q 282 -90 246 -90 l 246 -90 l 101 -90 q 65 -90 65 -54 l 65 -54 l 65 774 q 65 810 101 810 l 101 810 l 246 810 q 282 810 282 774 z"},"}":{"x_min":45,"x_max":435,"ha":455,"o":"m 143 161 l 143 161 l 143 276 q 143 306 153 320 q 162 334 188 338 l 188 338 l 221 344 q 234 347 234 358 l 234 358 q 234 371 221 372 l 221 372 l 188 378 q 162 383 153 397 q 143 410 143 440 l 143 440 l 143 557 q 143 583 135 595 q 126 607 102 607 l 102 607 l 81 607 q 45 607 45 643 l 45 643 l 45 764 q 45 800 81 800 l 81 800 l 125 800 q 220 800 274 774 q 327 748 349 702 q 371 656 371 595 l 371 595 l 371 462 q 403 452 419 432 q 435 412 435 376 l 435 376 l 435 341 q 435 305 419 285 q 403 264 371 254 l 371 254 l 371 124 q 371 64 349 18 q 327 -28 274 -54 q 220 -80 125 -80 l 125 -80 l 81 -80 q 45 -80 45 -44 l 45 -44 l 45 75 q 45 111 81 111 l 81 111 l 102 111 q 126 111 135 123 q 143 135 143 161 z"},"~":{"x_min":70,"x_max":664,"ha":734,"o":"m 390 274 l 367 277 l 327 282 q 287 288 260 290 q 232 292 212 290 q 191 288 170 283 q 149 278 121 269 l 121 269 q 96 262 83 270 q 70 277 70 294 l 70 294 l 70 400 q 70 426 81 437 q 92 448 107 453 l 107 453 q 143 466 168 472 q 192 478 214 479 q 235 480 260 477 q 284 474 319 469 l 319 469 q 325 468 331 467 q 337 466 343 465 l 343 465 l 367 462 l 398 458 q 443 452 471 449 q 498 446 518 447 q 537 448 556 453 q 575 458 603 466 l 603 466 q 609 468 612 469 l 612 469 q 664 484 664 438 l 664 438 l 664 339 q 664 313 653 302 q 641 291 627 286 l 627 286 q 591 273 566 267 q 541 261 519 260 q 497 259 472 262 q 447 265 412 271 l 412 271 q 407 271 402 272 q 396 273 390 274 l 390 274 z"}}}
